<svg width="22" height="20" viewBox="0 0 22 20" fill="none" xmlns="http://www.w3.org/2000/svg">
<path fill-rule="evenodd" clip-rule="evenodd" d="M10.4992 19.7433C10.6524 19.8838 10.8601 19.9627 11.0767 19.9627C11.2933 19.9628 11.501 19.8839 11.6542 19.7435L16.5585 15.2442C16.7029 15.102 16.7815 14.914 16.7778 14.7197C16.7741 14.5254 16.6884 14.34 16.5387 14.2026C16.3889 14.0651 16.1869 13.9864 15.9752 13.9829C15.7635 13.9795 15.5586 14.0516 15.4036 14.184L11.8943 17.4035L11.896 5.71351C11.8961 5.51459 11.81 5.32382 11.6567 5.18314C11.5035 5.04247 11.2956 4.96342 11.0789 4.96339C10.8621 4.96336 10.6542 5.04234 10.5009 5.18297C10.3476 5.3236 10.2615 5.51436 10.2615 5.71327L10.2598 17.4033L6.75143 14.1828C6.59652 14.0503 6.39162 13.9781 6.17989 13.9815C5.96816 13.9849 5.76613 14.0636 5.61637 14.201C5.46662 14.3384 5.38082 14.5237 5.37705 14.718C5.37329 14.9123 5.45185 15.1004 5.5962 15.2426L10.4992 19.7433ZM1.27138 6.46196C1.48814 6.46199 1.69602 6.38301 1.84931 6.24237C2.0026 6.10174 2.08873 5.91099 2.08876 5.71208L2.08909 3.46208C2.08915 3.06426 2.26141 2.68275 2.56799 2.40149C2.87457 2.12023 3.29034 1.96225 3.72385 1.96232L18.4347 1.96446C18.8682 1.96452 19.284 2.12262 19.5905 2.40397C19.897 2.68532 20.0691 3.06687 20.0691 3.46469L20.0687 5.71469C20.0687 5.91361 20.1548 6.10438 20.308 6.24506C20.4613 6.38573 20.6691 6.46478 20.8859 6.46481C21.1027 6.46484 21.3105 6.38586 21.4638 6.24523C21.6171 6.1046 21.7033 5.91384 21.7033 5.71493L21.7036 3.46493C21.7037 2.66928 21.3594 1.90617 20.7464 1.34347C20.1334 0.780774 19.302 0.464583 18.435 0.464457L3.72407 0.462318C2.85705 0.462192 2.0255 0.778142 1.41235 1.34066C0.799195 1.90318 0.454663 2.66619 0.454547 3.46184L0.45422 5.71184C0.454191 5.91076 0.540269 6.10153 0.693516 6.24221C0.846764 6.38288 1.05463 6.46193 1.27138 6.46196Z" fill="#144492"/>
</svg>
