<svg width="20" height="20" viewBox="0 0 20 20" fill="none" xmlns="http://www.w3.org/2000/svg">
<g clip-path="url(#clip0_1522_1383)">
<path d="M2.11144 3.15333C2.11144 7.01952 2.11144 10.8583 2.11144 14.73C2.1937 14.73 2.27047 14.73 2.35273 14.73C3.40565 14.73 4.46406 14.7464 5.51698 14.7245C6.14763 14.708 6.66861 14.9274 7.11829 15.3442C7.37604 15.5855 7.62282 15.8432 7.86959 16.101C8.80735 17.0881 10.1345 17.0826 11.0777 16.101C11.3793 15.7829 11.6919 15.4758 12.021 15.1851C12.3939 14.8616 12.8435 14.719 13.3481 14.7245C14.4229 14.7355 15.4978 14.73 16.5781 14.73C16.6604 14.73 16.7372 14.73 16.8414 14.73C16.8414 14.6367 16.8414 14.56 16.8414 14.4887C16.8414 13.529 16.8359 12.5693 16.8414 11.6096C16.8468 10.8693 17.5049 10.3647 18.1959 10.5676C18.6072 10.6883 18.9033 11.0557 18.9362 11.4835C18.9417 11.5438 18.9417 11.6041 18.9417 11.6699C18.9417 13.8909 18.9417 16.1119 18.9417 18.3329C18.9417 19.172 18.4646 19.7971 17.6914 19.9671C17.5433 20.0001 17.3897 20.0001 17.2417 20.0001C12.0593 20.0001 6.877 19.9946 1.69466 20.0055C0.723995 20.0055 0.14818 19.3694 0.0330166 18.7607C0.00559683 18.6181 -0.00537109 18.4755 -0.00537109 18.3329C-0.00537109 13.1287 -0.00537109 7.92986 -0.00537109 2.72558C-0.00537109 1.88105 0.466249 1.26136 1.234 1.08588C1.34917 1.05846 1.46433 1.05297 1.57949 1.05297C3.84985 1.05297 6.11473 1.04749 8.38509 1.05297C9.12542 1.05297 9.61349 1.70557 9.42156 2.39106C9.28994 2.8572 8.87864 3.15333 8.35218 3.15333C7.09087 3.15333 5.82956 3.15333 4.56825 3.15333C3.80598 3.15333 3.04919 3.15333 2.28692 3.15333C2.24305 3.15333 2.18821 3.15333 2.11144 3.15333Z" fill="#144492"/>
<path d="M15.3605 2.12231C16.1941 2.95588 17.0276 3.78944 17.8721 4.63397C17.8447 4.66687 17.8009 4.71623 17.7515 4.76558C15.5689 6.95368 13.3808 9.1363 11.1927 11.3189C11.0995 11.4067 10.9733 11.4779 10.8472 11.5109C9.87654 11.7576 8.90588 11.988 7.93521 12.2293C7.87489 12.2457 7.82005 12.2512 7.73779 12.2676C7.74328 12.1963 7.74876 12.1415 7.75973 12.0922C8.00102 11.0941 8.2478 10.096 8.49458 9.10339C8.51651 9.01565 8.56039 8.92242 8.62619 8.85662C10.8527 6.62465 13.0792 4.39816 15.3111 2.16619C15.3331 2.14425 15.355 2.1278 15.3605 2.12231Z" fill="#144492"/>
<path d="M16.5342 0.948782C16.8852 0.597808 17.1813 0.246835 17.6419 0.0932841C18.3658 -0.14801 19.1665 0.0878002 19.6271 0.69652C20.0988 1.31621 20.1317 2.16074 19.6765 2.78591C19.501 3.0272 19.2816 3.23559 19.0513 3.48237C18.2013 2.62687 17.3732 1.79331 16.5342 0.948782Z" fill="#144492"/>
</g>
<defs>
<clipPath id="clip0_1522_1383">
<rect width="20" height="20" fill="white"/>
</clipPath>
</defs>
</svg>
