<svg width="24" height="24" viewBox="0 0 24 24" fill="none" xmlns="http://www.w3.org/2000/svg">
<path d="M17.004 10.407C17.142 10.842 16.788 11.249 16.332 11.249H12.867C12.7353 11.2491 12.6058 11.2145 12.4917 11.1486C12.3776 11.0828 12.2829 10.9881 12.217 10.874L10.485 7.874C10.256 7.478 10.432 6.967 10.878 6.87C12.1562 6.59056 13.4927 6.79829 14.6258 7.45251C15.7589 8.10672 16.6069 9.16031 17.004 10.407ZM8.12 8.464C8.427 8.126 8.958 8.229 9.186 8.624L10.918 11.624C10.9838 11.738 11.0185 11.8673 11.0185 11.999C11.0185 12.1307 10.9838 12.26 10.918 12.374L9.186 15.375C8.957 15.771 8.426 15.873 8.119 15.535C7.23674 14.5693 6.74831 13.3081 6.75 12C6.75 10.638 7.269 9.397 8.12 8.464ZM10.878 17.13C10.431 17.033 10.255 16.522 10.484 16.127L12.217 13.124C12.2829 13.0099 12.3776 12.9152 12.4917 12.8494C12.6058 12.7835 12.7353 12.7489 12.867 12.749H16.332C16.789 12.749 17.142 13.157 17.004 13.592C16.6071 14.8389 15.7591 15.8927 14.626 16.5471C13.4929 17.2015 12.1563 17.4094 10.878 17.13Z" fill="#848EA2"/>
<path fill-rule="evenodd" clip-rule="evenodd" d="M21 12.75C21.1989 12.75 21.3897 12.671 21.5303 12.5303C21.671 12.3897 21.75 12.1989 21.75 12C21.75 11.8011 21.671 11.6103 21.5303 11.4697C21.3897 11.329 21.1989 11.25 21 11.25H20.217C20.1761 10.7918 20.0968 10.3379 19.98 9.893L20.714 9.626C20.8066 9.59232 20.8916 9.54073 20.9642 9.47418C21.0369 9.40763 21.0957 9.32742 21.1374 9.23814C21.179 9.14885 21.2027 9.05224 21.207 8.95382C21.2113 8.85539 21.1962 8.75708 21.1625 8.6645C21.1288 8.57192 21.0772 8.48688 21.0107 8.41423C20.9441 8.34159 20.8639 8.28276 20.7746 8.24112C20.6853 8.19947 20.5887 8.17582 20.4903 8.17151C20.3919 8.1672 20.2936 8.18232 20.201 8.216L19.466 8.484C19.2699 8.06849 19.0394 7.6701 18.777 7.293L19.377 6.789C19.4541 6.72624 19.518 6.64876 19.5649 6.56108C19.6118 6.47341 19.6408 6.37728 19.6502 6.27829C19.6596 6.1793 19.6492 6.07943 19.6197 5.98448C19.5902 5.88954 19.542 5.80141 19.4781 5.72524C19.4142 5.64906 19.3358 5.58636 19.2474 5.54077C19.1591 5.49518 19.0625 5.46761 18.9634 5.45968C18.8643 5.45175 18.7646 5.46361 18.6701 5.49456C18.5756 5.52552 18.4882 5.57496 18.413 5.64L17.813 6.144C17.4867 5.82033 17.1342 5.52431 16.759 5.259L17.15 4.581C17.2 4.49567 17.2327 4.40129 17.246 4.30329C17.2594 4.2053 17.2533 4.10561 17.2281 4.00999C17.2028 3.91437 17.1588 3.82469 17.0987 3.74612C17.0387 3.66754 16.9636 3.60163 16.878 3.55218C16.7923 3.50272 16.6977 3.4707 16.5996 3.45795C16.5016 3.4452 16.4019 3.45198 16.3065 3.47789C16.211 3.50381 16.1216 3.54835 16.0434 3.60895C15.9653 3.66955 15.8999 3.74502 15.851 3.831L15.461 4.508C15.0433 4.31489 14.6101 4.15733 14.166 4.037L14.302 3.267C14.3322 3.07298 14.2851 2.87485 14.1709 2.71515C14.0566 2.55546 13.8843 2.44693 13.6909 2.41289C13.4976 2.37885 13.2985 2.422 13.1366 2.53309C12.9747 2.64417 12.8628 2.81432 12.825 3.007L12.689 3.777C12.2308 3.73915 11.7702 3.73915 11.312 3.777L11.176 3.007C11.1606 2.90846 11.1258 2.81396 11.0735 2.72905C11.0211 2.64414 10.9524 2.57052 10.8713 2.51249C10.7902 2.45446 10.6983 2.41319 10.6011 2.3911C10.5038 2.36901 10.4031 2.36653 10.3049 2.38382C10.2067 2.40111 10.1129 2.43782 10.029 2.4918C9.94515 2.54577 9.8729 2.61593 9.81647 2.69817C9.76005 2.78041 9.7206 2.87308 9.70042 2.97075C9.68025 3.06842 9.67976 3.16914 9.69898 3.267L9.83498 4.037C9.38698 4.158 8.95498 4.317 8.54098 4.507L8.15098 3.831C8.10173 3.74564 8.03615 3.67082 7.95799 3.6108C7.87983 3.55078 7.79061 3.50675 7.69543 3.48122C7.60025 3.45568 7.50097 3.44914 7.40327 3.46197C7.30556 3.4748 7.21134 3.50675 7.12598 3.556C7.04062 3.60525 6.96579 3.67082 6.90578 3.74898C6.84576 3.82715 6.80173 3.91637 6.77619 4.01155C6.75066 4.10673 6.74412 4.206 6.75695 4.30371C6.76978 4.40142 6.80173 4.49564 6.85098 4.581L7.24298 5.259C6.86772 5.52428 6.51517 5.8203 6.18898 6.144L5.58898 5.64C5.43661 5.51203 5.23965 5.44983 5.04142 5.46709C4.8432 5.48434 4.65994 5.57963 4.53198 5.732C4.40401 5.88437 4.34181 6.08133 4.35906 6.27955C4.37632 6.47778 4.47161 6.66103 4.62398 6.789L5.22398 7.292C4.96147 7.66942 4.731 8.06815 4.53498 8.484L3.79998 8.217C3.70739 8.18332 3.60908 8.1682 3.51066 8.17251C3.41224 8.17682 3.31562 8.20047 3.22634 8.24212C3.13706 8.28376 3.05685 8.34259 2.9903 8.41523C2.92375 8.48788 2.87216 8.57292 2.83848 8.6655C2.80479 8.75808 2.78967 8.85639 2.79398 8.95482C2.79829 9.05324 2.82195 9.14985 2.86359 9.23914C2.9477 9.41945 3.1 9.55897 3.28698 9.627L4.02198 9.894C3.90493 10.3382 3.82532 10.7915 3.78398 11.249H3.00098C2.80206 11.249 2.6113 11.328 2.47065 11.4687C2.32999 11.6093 2.25098 11.8001 2.25098 11.999C2.25098 12.1979 2.32999 12.3887 2.47065 12.5293C2.6113 12.67 2.80206 12.749 3.00098 12.749H3.78398C3.82598 13.213 3.90598 13.666 4.02198 14.105L3.28698 14.373C3.19439 14.4067 3.10935 14.4583 3.03671 14.5248C2.96407 14.5914 2.90524 14.6716 2.86359 14.7609C2.82195 14.8501 2.79829 14.9468 2.79398 15.0452C2.78967 15.1436 2.80479 15.2419 2.83848 15.3345C2.87216 15.4271 2.92375 15.5121 2.9903 15.5848C3.05685 15.6574 3.13706 15.7162 3.22634 15.7579C3.31562 15.7995 3.41224 15.8232 3.51066 15.8275C3.60908 15.8318 3.70739 15.8167 3.79998 15.783L4.53498 15.515C4.73198 15.932 4.96298 16.331 5.22498 16.707L4.62498 17.211C4.54582 17.273 4.47995 17.3503 4.43128 17.4384C4.3826 17.5264 4.35213 17.6232 4.34166 17.7233C4.33119 17.8233 4.34095 17.9244 4.37034 18.0206C4.39974 18.1167 4.44818 18.206 4.51278 18.2831C4.57737 18.3602 4.65681 18.4235 4.74637 18.4692C4.83592 18.515 4.93377 18.5422 5.03408 18.5494C5.13439 18.5566 5.23512 18.5435 5.33027 18.511C5.42543 18.4784 5.51307 18.4271 5.58798 18.36L6.18898 17.855C6.51498 18.178 6.86798 18.475 7.24298 18.74L6.85098 19.42C6.80173 19.5054 6.76978 19.5996 6.75695 19.6973C6.74412 19.795 6.75066 19.8943 6.77619 19.9895C6.80173 20.0846 6.84576 20.1739 6.90578 20.252C6.96579 20.3302 7.04062 20.3958 7.12598 20.445C7.21134 20.4942 7.30556 20.5262 7.40327 20.539C7.50097 20.5519 7.60025 20.5453 7.69543 20.5198C7.79061 20.4942 7.87983 20.4502 7.95799 20.3902C8.03615 20.3302 8.10173 20.2554 8.15098 20.17L8.54098 19.491C8.95498 19.683 9.38798 19.841 9.83498 19.962L9.69898 20.733C9.67976 20.8309 9.68025 20.9316 9.70042 21.0292C9.7206 21.1269 9.76005 21.2196 9.81647 21.3018C9.8729 21.3841 9.94515 21.4542 10.029 21.5082C10.1129 21.5622 10.2067 21.5989 10.3049 21.6162C10.4031 21.6335 10.5038 21.631 10.6011 21.6089C10.6983 21.5868 10.7902 21.5455 10.8713 21.4875C10.9524 21.4295 11.0211 21.3559 11.0735 21.2709C11.1258 21.186 11.1606 21.0915 11.176 20.993L11.313 20.221C11.7709 20.2587 12.2311 20.2587 12.689 20.221L12.825 20.994C12.8403 21.0925 12.8752 21.187 12.9275 21.2719C12.9798 21.3569 13.0485 21.4305 13.1297 21.4885C13.2108 21.5465 13.3026 21.5878 13.3999 21.6099C13.4972 21.632 13.5978 21.6345 13.6961 21.6172C13.7943 21.5999 13.8881 21.5632 13.9719 21.5092C14.0558 21.4552 14.1281 21.3851 14.1845 21.3028C14.2409 21.2206 14.2804 21.1279 14.3005 21.0302C14.3207 20.9326 14.3212 20.8319 14.302 20.734L14.166 19.962C14.6097 19.8419 15.0426 19.6847 15.46 19.492L15.851 20.169C15.9002 20.2544 15.9658 20.3292 16.044 20.3892C16.1221 20.4492 16.2113 20.4932 16.3065 20.5188C16.4017 20.5443 16.501 20.5509 16.5987 20.538C16.6964 20.5252 16.7906 20.4932 16.876 20.444C16.9613 20.3948 17.0362 20.3292 17.0962 20.251C17.1562 20.1729 17.2002 20.0836 17.2258 19.9885C17.2513 19.8933 17.2578 19.794 17.245 19.6963C17.2322 19.5986 17.2002 19.5044 17.151 19.419L16.758 18.74C17.1333 18.4748 17.4858 18.1787 17.812 17.855L18.413 18.359C18.4885 18.4223 18.5757 18.4701 18.6697 18.4997C18.7637 18.5293 18.8626 18.54 18.9607 18.5314C19.0589 18.5228 19.1544 18.4949 19.2418 18.4494C19.3291 18.4038 19.4067 18.3415 19.47 18.266C19.5333 18.1905 19.5811 18.1033 19.6107 18.0093C19.6402 17.9153 19.651 17.8164 19.6424 17.7182C19.6338 17.6201 19.6059 17.5246 19.5603 17.4372C19.5148 17.3498 19.4525 17.2723 19.377 17.209L18.777 16.706C19.0398 16.3289 19.2706 15.9305 19.467 15.515L20.202 15.783C20.2946 15.8166 20.3929 15.8317 20.4913 15.8273C20.5897 15.8229 20.6862 15.7992 20.7755 15.7575C20.8647 15.7158 20.9449 15.657 21.0113 15.5843C21.0778 15.5116 21.1294 15.4266 21.163 15.334C21.1966 15.2414 21.2116 15.1431 21.2073 15.0447C21.2029 14.9463 21.1792 14.8497 21.1375 14.7605C21.0958 14.6713 21.037 14.5911 20.9643 14.5246C20.8916 14.4581 20.8066 14.4066 20.714 14.373L19.98 14.105C20.095 13.667 20.175 13.213 20.217 12.749H21.001L21 12.75ZM18.343 9.69C18.0708 8.94071 17.6679 8.24562 17.153 7.637C16.6394 7.03099 16.0234 6.5199 15.333 6.127C14.3174 5.54921 13.1684 5.24688 12 5.25C11.5891 5.24992 11.1791 5.28708 10.775 5.361C10.0182 5.49959 9.29085 5.76751 8.62498 6.153C7.26706 6.93957 6.22382 8.17258 5.67298 9.642C5.66329 9.6758 5.65126 9.70888 5.63698 9.741C5.3803 10.4664 5.24974 11.2305 5.25098 12C5.24971 13.1813 5.55899 14.3422 6.14784 15.3664C6.73668 16.3905 7.58439 17.2418 8.60598 17.835L8.61598 17.841L8.62598 17.846C9.30752 18.2406 10.0532 18.5121 10.829 18.648C10.836 18.648 10.843 18.65 10.85 18.652C11.6114 18.7829 12.3896 18.7829 13.151 18.652L13.173 18.648C13.9582 18.5106 14.7127 18.2342 15.401 17.832C16.0686 17.4418 16.6645 16.9402 17.163 16.349L17.172 16.339L17.181 16.327C17.6934 15.7143 18.093 15.0154 18.361 14.263C18.614 13.555 18.751 12.793 18.751 11.999C18.7508 11.2117 18.6127 10.4306 18.343 9.691V9.69Z" fill="#848EA2"/>
</svg>
