<svg width="24" height="23" viewBox="0 0 24 23" fill="none" xmlns="http://www.w3.org/2000/svg">
<path d="M23.225 9.64037V9.04361C23.225 8.43763 22.7374 7.94639 22.1358 7.94639C22.042 7.94639 21.951 7.95837 21.8641 7.98095C21.4006 6.62384 20.6609 5.36994 19.6737 4.28932C19.9257 3.79163 19.8196 3.16676 19.3813 2.78428C17.3227 0.988921 14.6877 0 11.9616 0C9.23549 0 6.62102 0.981087 4.56605 2.76308C4.12687 3.14418 4.01891 3.76859 4.2696 4.2672C3.27597 5.34875 2.5312 6.60494 2.06412 7.96529C1.99916 7.95331 1.93283 7.94639 1.86421 7.94639C1.26263 7.94639 0.774961 8.43763 0.774961 9.04361V9.64037C0.326636 9.77631 0 10.1952 0 10.691V13.1684C0 13.6643 0.326636 14.0831 0.774961 14.2191V14.8158C0.774961 15.4218 1.26263 15.9131 1.86421 15.9131C2.06412 15.9131 2.25169 15.8587 2.41272 15.7638C2.92692 16.9098 3.6479 17.9651 4.5569 18.8812C6.22668 20.5632 8.3608 21.607 10.6683 21.8913C10.741 22.3927 11.1633 22.7834 11.6834 22.7963C11.7754 22.7986 11.8687 22.7996 11.9611 22.7996C12.3413 22.7996 12.7251 22.7802 13.1021 22.7415C13.6803 22.6825 14.1012 22.1623 14.0426 21.5798C13.9841 20.9973 13.4676 20.5729 12.8893 20.6323C12.5087 20.6715 12.1176 20.6862 11.7351 20.6766C11.354 20.6673 11.0151 20.8632 10.8229 21.165C7.22992 20.7415 4.22797 18.3407 2.9228 15.0744C2.94293 14.9914 2.95345 14.9043 2.95345 14.8154V9.04315C2.95345 8.78186 2.86241 8.54177 2.71099 8.3533C3.14788 7.02014 3.86154 5.81233 4.78335 4.79945C5.22115 5.03815 5.7779 4.99484 6.17773 4.6483C7.78438 3.25524 9.83798 2.48797 11.9611 2.48797C14.0843 2.48797 16.1543 3.26123 17.7642 4.66535C17.9979 4.86903 18.2857 4.96903 18.5721 4.96903C18.7747 4.96903 18.9765 4.9188 19.1581 4.82018C20.0872 5.84735 20.8032 7.07314 21.235 8.42611C21.1161 8.60214 21.0465 8.81458 21.0465 9.04315V14.8154C21.0465 15.4214 21.5342 15.9126 22.1358 15.9126C22.7374 15.9126 23.225 15.4214 23.225 14.8154V14.2186C23.6734 14.0827 24 13.6638 24 13.168V10.6906C24 10.1947 23.6734 9.77585 23.225 9.63991V9.64037Z" fill="#2196F3"/>
<path d="M5.18374 12.9287V13.7508H8.4103V12.8509H6.6751C7.42079 12.2748 8.33985 11.4458 8.33985 10.4104C8.33985 9.61406 7.86408 8.98596 6.79725 8.98596C5.94269 8.98596 5.20341 9.47812 5.17139 10.6237H6.23181C6.23181 10.1772 6.42441 9.9182 6.75242 9.9182C7.08043 9.9182 7.241 10.1385 7.241 10.4813C7.241 11.2776 6.18057 12.0997 5.1842 12.9283L5.18374 12.9287Z" fill="#2196F3"/>
<path d="M12.3111 13.8159V12.9744H12.8381V12.0164H12.3111V9.15466H11.0837L9.05298 12.0809V12.9744H11.2123V13.8159H12.3111ZM10.2095 12.0159L11.2891 10.3717V12.0159H10.2095Z" fill="#2196F3"/>
<path d="M13.2786 14.8501H14.1844L15.6556 8.56262H14.7498L13.2786 14.8501Z" fill="#2196F3"/>
<path d="M16.0056 10.0412H18.0043L16.3721 13.8158H17.4965L19.11 9.91817V9.09607H16.0056V10.0412Z" fill="#2196F3"/>
</svg>
