<svg width="22" height="22" viewBox="0 0 22 22" fill="none" xmlns="http://www.w3.org/2000/svg">
<path fill-rule="evenodd" clip-rule="evenodd" d="M18.9022 3.09793C18.5539 2.7496 18.1405 2.47329 17.6855 2.28477C17.2304 2.09626 16.7427 1.99923 16.2502 1.99923C15.7576 1.99923 15.2699 2.09626 14.8149 2.28477C14.3598 2.47329 13.9464 2.7496 13.5982 3.09793L9.09817 7.59792C8.67363 8.02209 8.35709 8.54195 8.17515 9.11383C7.99321 9.68571 7.95117 10.2929 8.05258 10.8844C8.15399 11.4759 8.39587 12.0344 8.75792 12.513C9.11996 12.9917 9.59159 13.3764 10.1332 13.6349C10.3065 13.7242 10.4382 13.8775 10.5004 14.0623C10.5626 14.2471 10.5504 14.4488 10.4664 14.6248C10.3824 14.8007 10.2332 14.937 10.0504 15.0048C9.8676 15.0726 9.66558 15.0665 9.48717 14.9879C8.72928 14.6259 8.06931 14.0873 7.56268 13.4174C7.05605 12.7475 6.71755 11.9658 6.57559 11.138C6.43364 10.3101 6.49237 9.46032 6.74687 8.65989C7.00137 7.85946 7.44419 7.13177 8.03817 6.53793L12.5382 2.03793C13.0233 1.54006 13.6025 1.1435 14.2421 0.871257C14.8818 0.599014 15.5691 0.45651 16.2642 0.452014C16.9594 0.447518 17.6485 0.581119 18.2916 0.845065C18.9347 1.10901 19.519 1.49805 20.0105 1.98959C20.5021 2.48114 20.8911 3.06542 21.155 3.70851C21.419 4.35161 21.5526 5.04072 21.5481 5.73586C21.5436 6.431 21.4011 7.11833 21.1288 7.75796C20.8566 8.39758 20.46 8.97678 19.9622 9.46193L18.2052 11.2189C18.1365 11.2926 18.0537 11.3517 17.9617 11.3927C17.8697 11.4337 17.7704 11.4557 17.6697 11.4575C17.569 11.4593 17.469 11.4408 17.3756 11.403C17.2822 11.3653 17.1973 11.3092 17.1261 11.238C17.0549 11.1667 16.9988 11.0819 16.961 10.9885C16.9233 10.8951 16.9048 10.7951 16.9066 10.6944C16.9084 10.5937 16.9304 10.4944 16.9714 10.4024C17.0124 10.3104 17.0715 10.2276 17.1452 10.1589L18.9022 8.40193C19.2505 8.05369 19.5268 7.64025 19.7153 7.18522C19.9038 6.73018 20.0009 6.24247 20.0009 5.74993C20.0009 5.25738 19.9038 4.76967 19.7153 4.31463C19.5268 3.8596 19.2505 3.44616 18.9022 3.09793ZM11.5132 7.36492C11.599 7.18553 11.7526 7.04757 11.9401 6.98137C12.1276 6.91517 12.3337 6.92616 12.5132 7.01193C13.2711 7.37395 13.931 7.91253 14.4377 8.58245C14.9443 9.25236 15.2828 10.0341 15.4247 10.8619C15.5667 11.6897 15.508 12.5395 15.2535 13.34C14.999 14.1404 14.5561 14.8681 13.9622 15.4619L9.46217 19.9619C8.97702 20.4598 8.39783 20.8564 7.7582 21.1286C7.11857 21.4008 6.43124 21.5433 5.7361 21.5478C5.04097 21.5523 4.35185 21.4187 3.70876 21.1548C3.06566 20.8908 2.48139 20.5018 1.98984 20.0103C1.49829 19.5187 1.10925 18.9344 0.845309 18.2913C0.581363 17.6482 0.447762 16.9591 0.452258 16.264C0.456754 15.5689 0.599258 14.8815 0.871501 14.2419C1.14374 13.6023 1.5403 13.0231 2.03817 12.5379L3.79517 10.7809C3.86383 10.7072 3.94663 10.6481 4.03863 10.6071C4.13063 10.5662 4.22994 10.5441 4.33065 10.5423C4.43135 10.5406 4.53138 10.5591 4.62477 10.5968C4.71815 10.6345 4.80299 10.6907 4.87421 10.7619C4.94543 10.8331 5.00157 10.9179 5.03929 11.0113C5.07701 11.1047 5.09554 11.2047 5.09376 11.3054C5.09198 11.4062 5.06994 11.5055 5.02895 11.5975C4.98796 11.6895 4.92886 11.7723 4.85517 11.8409L3.09817 13.5979C2.7499 13.9462 2.47364 14.3596 2.28516 14.8147C2.09668 15.2697 1.99967 15.7574 1.99967 16.2499C1.99967 16.7424 2.09668 17.2301 2.28516 17.6852C2.47364 18.1402 2.7499 18.5537 3.09817 18.9019C3.44643 19.2502 3.85989 19.5265 4.31492 19.7149C4.76995 19.9034 5.25765 20.0004 5.75017 20.0004C6.24269 20.0004 6.73039 19.9034 7.18542 19.7149C7.64045 19.5265 8.0539 19.2502 8.40217 18.9019L12.9022 14.4019C13.3267 13.9778 13.6432 13.4579 13.8252 12.886C14.0071 12.3141 14.0492 11.7069 13.9478 11.1154C13.8464 10.5239 13.6045 9.96543 13.2424 9.48681C12.8804 9.00819 12.4088 8.62346 11.8672 8.36492C11.7783 8.32252 11.6986 8.26301 11.6327 8.1898C11.5667 8.11659 11.5159 8.03112 11.483 7.93826C11.4501 7.84539 11.4359 7.74696 11.4411 7.64859C11.4462 7.55022 11.4707 7.45383 11.5132 7.36492Z" fill="#F2994A"/>
</svg>
