<svg width="24" height="24" viewBox="0 0 24 24" fill="none" xmlns="http://www.w3.org/2000/svg">
<path d="M6.25 6.375C6.25 5.28098 6.6846 4.23177 7.45818 3.45818C8.23177 2.6846 9.28098 2.25 10.375 2.25C11.469 2.25 12.5182 2.6846 13.2918 3.45818C14.0654 4.23177 14.5 5.28098 14.5 6.375C14.5 7.46902 14.0654 8.51823 13.2918 9.29182C12.5182 10.0654 11.469 10.5 10.375 10.5C9.28098 10.5 8.23177 10.0654 7.45818 9.29182C6.6846 8.51823 6.25 7.46902 6.25 6.375ZM3.25 19.125C3.25 17.2353 4.00067 15.4231 5.33686 14.0869C6.67306 12.7507 8.48533 12 10.375 12C12.2647 12 14.0769 12.7507 15.4131 14.0869C16.7493 15.4231 17.5 17.2353 17.5 19.125V19.128L17.499 19.247C17.4969 19.3742 17.4624 19.4987 17.3989 19.6089C17.3354 19.7191 17.245 19.8114 17.136 19.877C15.0952 21.106 12.7573 21.7536 10.375 21.75C7.903 21.75 5.589 21.066 3.615 19.877C3.50585 19.8115 3.41517 19.7193 3.35149 19.6091C3.28781 19.4989 3.25323 19.3743 3.251 19.247L3.25 19.125ZM19.75 7.5C19.75 7.30109 19.671 7.11032 19.5303 6.96967C19.3897 6.82902 19.1989 6.75 19 6.75C18.8011 6.75 18.6103 6.82902 18.4697 6.96967C18.329 7.11032 18.25 7.30109 18.25 7.5V9.75H16C15.8011 9.75 15.6103 9.82902 15.4697 9.96967C15.329 10.1103 15.25 10.3011 15.25 10.5C15.25 10.6989 15.329 10.8897 15.4697 11.0303C15.6103 11.171 15.8011 11.25 16 11.25H18.25V13.5C18.25 13.6989 18.329 13.8897 18.4697 14.0303C18.6103 14.171 18.8011 14.25 19 14.25C19.1989 14.25 19.3897 14.171 19.5303 14.0303C19.671 13.8897 19.75 13.6989 19.75 13.5V11.25H22C22.1989 11.25 22.3897 11.171 22.5303 11.0303C22.671 10.8897 22.75 10.6989 22.75 10.5C22.75 10.3011 22.671 10.1103 22.5303 9.96967C22.3897 9.82902 22.1989 9.75 22 9.75H19.75V7.5Z" fill="white"/>
</svg>
