<svg width="24" height="24" viewBox="0 0 24 24" fill="none" xmlns="http://www.w3.org/2000/svg">
<path fill-rule="evenodd" clip-rule="evenodd" d="M11.0779 2.25C10.1609 2.25 9.37893 2.913 9.22793 3.817L9.04993 4.889C9.02993 5.009 8.93494 5.149 8.75293 5.237C8.41028 5.40171 8.08067 5.59226 7.76693 5.807C7.60093 5.922 7.43293 5.933 7.31693 5.89L6.29993 5.508C5.88418 5.35224 5.42663 5.34906 5.00875 5.49904C4.59087 5.64901 4.23976 5.94241 4.01793 6.327L3.09593 7.924C2.87402 8.30836 2.79565 8.75897 2.87475 9.19569C2.95385 9.6324 3.18531 10.0269 3.52793 10.309L4.36793 11.001C4.46293 11.079 4.53793 11.23 4.52193 11.431C4.49344 11.8101 4.49344 12.1909 4.52193 12.57C4.53693 12.77 4.46293 12.922 4.36893 13L3.52793 13.692C3.18531 13.9741 2.95385 14.3686 2.87475 14.8053C2.79565 15.242 2.87402 15.6926 3.09593 16.077L4.01793 17.674C4.23992 18.0584 4.59109 18.3516 5.00896 18.5014C5.42683 18.6512 5.88429 18.6478 6.29993 18.492L7.31893 18.11C7.43393 18.067 7.60193 18.079 7.76893 18.192C8.08093 18.406 8.40993 18.597 8.75393 18.762C8.93593 18.85 9.03093 18.99 9.05093 19.112L9.22893 20.183C9.37993 21.087 10.1619 21.75 11.0789 21.75H12.9229C13.8389 21.75 14.6219 21.087 14.7729 20.183L14.9509 19.111C14.9709 18.991 15.0649 18.851 15.2479 18.762C15.5919 18.597 15.9209 18.406 16.2329 18.192C16.3999 18.078 16.5679 18.067 16.6829 18.11L17.7029 18.492C18.1184 18.6472 18.5755 18.6501 18.993 18.5002C19.4104 18.3502 19.7612 18.0571 19.9829 17.673L20.9059 16.076C21.1278 15.6916 21.2062 15.241 21.1271 14.8043C21.048 14.3676 20.8166 13.9731 20.4739 13.691L19.6339 12.999C19.5389 12.921 19.4639 12.77 19.4799 12.569C19.5084 12.1899 19.5084 11.8091 19.4799 11.43C19.4639 11.23 19.5389 11.078 19.6329 11L20.4729 10.308C21.1809 9.726 21.3639 8.718 20.9059 7.923L19.9839 6.326C19.7619 5.94159 19.4108 5.6484 18.9929 5.49861C18.575 5.34883 18.1176 5.35215 17.7019 5.508L16.6819 5.89C16.5679 5.933 16.3999 5.921 16.2329 5.807C15.9195 5.5923 15.5902 5.40175 15.2479 5.237C15.0649 5.15 14.9709 5.01 14.9509 4.889L14.7719 3.817C14.699 3.37906 14.473 2.98122 14.1343 2.69427C13.7955 2.40732 13.3659 2.24989 12.9219 2.25H11.0789H11.0779ZM11.9999 15.75C12.9945 15.75 13.9483 15.3549 14.6516 14.6517C15.3548 13.9484 15.7499 12.9946 15.7499 12C15.7499 11.0054 15.3548 10.0516 14.6516 9.34835C13.9483 8.64509 12.9945 8.25 11.9999 8.25C11.0054 8.25 10.0515 8.64509 9.34828 9.34835C8.64502 10.0516 8.24993 11.0054 8.24993 12C8.24993 12.9946 8.64502 13.9484 9.34828 14.6517C10.0515 15.3549 11.0054 15.75 11.9999 15.75Z" fill="#848EA2"/>
</svg>
