<svg width="24" height="24" viewBox="0 0 24 24" fill="none" xmlns="http://www.w3.org/2000/svg">
<path fill-rule="evenodd" clip-rule="evenodd" d="M12.0002 6.75C11.9999 5.93 12.1918 5.12135 12.5604 4.38885C12.929 3.65635 13.464 3.02038 14.1226 2.53188C14.7812 2.04339 15.5451 1.71596 16.3531 1.57584C17.161 1.43572 17.9905 1.48681 18.7752 1.725C18.8992 1.76257 19.0113 1.83163 19.1007 1.92544C19.1901 2.01926 19.2537 2.13464 19.2852 2.26033C19.3167 2.38602 19.3151 2.51773 19.2806 2.64263C19.2461 2.76753 19.1798 2.88135 19.0882 2.973L15.7682 6.292C15.8312 6.767 16.0442 7.226 16.4092 7.591C16.7742 7.956 17.2332 8.169 17.7092 8.231L21.0272 4.912C21.1188 4.82039 21.2326 4.75409 21.3575 4.71956C21.4824 4.68503 21.6141 4.68345 21.7398 4.71497C21.8655 4.7465 21.9809 4.81005 22.0747 4.89943C22.1685 4.98881 22.2376 5.10098 22.2752 5.225C22.5244 6.04585 22.5686 6.91527 22.4041 7.75719C22.2396 8.59912 21.8712 9.38789 21.3313 10.0545C20.7913 10.7211 20.0963 11.2453 19.3069 11.5811C18.5175 11.917 17.6579 12.0543 16.8032 11.981C15.7852 11.895 14.9332 12.081 14.4942 12.615L7.34416 21.3C7.0514 21.6538 6.68799 21.9425 6.2772 22.1477C5.86642 22.3529 5.4173 22.4701 4.95862 22.4917C4.49994 22.5133 4.0418 22.4389 3.61353 22.2732C3.18527 22.1076 2.79632 21.8543 2.47158 21.5296C2.14685 21.205 1.8935 20.8161 1.72774 20.3878C1.56198 19.9596 1.48748 19.5015 1.50899 19.0428C1.53051 18.5841 1.64758 18.135 1.85269 17.7241C2.05781 17.3133 2.34646 16.9498 2.70016 16.657L11.3842 9.50599C11.9172 9.06599 12.1042 8.215 12.0182 7.197C12.0059 7.04831 11.9999 6.89918 12.0002 6.75ZM4.11716 19.125C4.11716 18.9261 4.19618 18.7353 4.33683 18.5947C4.47748 18.454 4.66825 18.375 4.86716 18.375H4.87516C5.07407 18.375 5.26484 18.454 5.40549 18.5947C5.54614 18.7353 5.62516 18.9261 5.62516 19.125V19.133C5.62516 19.3319 5.54614 19.5227 5.40549 19.6633C5.26484 19.804 5.07407 19.883 4.87516 19.883H4.86716C4.66825 19.883 4.47748 19.804 4.33683 19.6633C4.19618 19.5227 4.11716 19.3319 4.11716 19.133V19.125Z" fill="white"/>
<path d="M10.0762 8.63999L7.87522 6.43999V4.87399C7.87521 4.74451 7.84168 4.61724 7.77789 4.50456C7.7141 4.39188 7.62223 4.29763 7.51122 4.23099L3.76121 1.98099C3.61779 1.89502 3.44974 1.85944 3.28378 1.87991C3.11781 1.90039 2.96345 1.97574 2.84522 2.09399L2.09522 2.84399C1.97696 2.96223 1.90161 3.11659 1.88113 3.28255C1.86066 3.44852 1.89624 3.61657 1.98222 3.75999L4.23221 7.50999C4.29885 7.62101 4.3931 7.71288 4.50578 7.77667C4.61846 7.84046 4.74573 7.87399 4.87522 7.87399H6.43922L8.50122 9.93599L10.0762 8.63899V8.63999Z" fill="white"/>
<path fill-rule="evenodd" clip-rule="evenodd" d="M12.5562 17.329L16.7392 21.511C17.0526 21.8244 17.4246 22.073 17.8341 22.2426C18.2436 22.4122 18.6824 22.4995 19.1257 22.4995C19.5689 22.4995 20.0077 22.4122 20.4172 22.2426C20.8267 22.073 21.1988 21.8244 21.5122 21.511C21.8256 21.1976 22.0742 20.8256 22.2438 20.4161C22.4134 20.0066 22.5007 19.5677 22.5007 19.1245C22.5007 18.6813 22.4134 18.2424 22.2438 17.8329C22.0742 17.4235 21.8256 17.0514 21.5122 16.738L18.2062 13.433C17.6994 13.5049 17.1861 13.5193 16.6762 13.476C16.2822 13.442 15.9942 13.47 15.8092 13.518C15.7506 13.5304 15.6943 13.5517 15.6422 13.581L12.5562 17.329ZM15.9702 15.969C16.1108 15.8286 16.3014 15.7497 16.5002 15.7497C16.6989 15.7497 16.8895 15.8286 17.0302 15.969L18.9052 17.845C18.9788 17.9137 19.0379 17.9965 19.0789 18.0885C19.1199 18.1805 19.142 18.2798 19.1437 18.3805C19.1455 18.4812 19.127 18.5812 19.0893 18.6746C19.0516 18.768 18.9954 18.8528 18.9242 18.9241C18.853 18.9953 18.7681 19.0514 18.6747 19.0891C18.5814 19.1269 18.4813 19.1454 18.3806 19.1436C18.2799 19.1418 18.1806 19.1198 18.0886 19.0788C17.9966 19.0378 17.9138 18.9787 17.8452 18.905L15.9702 17.03C15.8297 16.8894 15.7508 16.6988 15.7508 16.5C15.7508 16.3013 15.8297 16.1106 15.9702 15.97V15.969Z" fill="white"/>
</svg>
