<svg width="24" height="24" viewBox="0 0 24 24" fill="none" xmlns="http://www.w3.org/2000/svg">
<path fill-rule="evenodd" clip-rule="evenodd" d="M4.5 3.75C3.70435 3.75 2.94129 4.06607 2.37868 4.62868C1.81607 5.19129 1.5 5.95435 1.5 6.75V17.25C1.5 18.0456 1.81607 18.8087 2.37868 19.3713C2.94129 19.9339 3.70435 20.25 4.5 20.25H19.5C20.2956 20.25 21.0587 19.9339 21.6213 19.3713C22.1839 18.8087 22.5 18.0456 22.5 17.25V6.75C22.5 5.95435 22.1839 5.19129 21.6213 4.62868C21.0587 4.06607 20.2956 3.75 19.5 3.75H4.5ZM8.625 6.75C8.02826 6.75 7.45597 6.98705 7.03401 7.40901C6.61205 7.83097 6.375 8.40326 6.375 9C6.375 9.59674 6.61205 10.169 7.03401 10.591C7.45597 11.0129 8.02826 11.25 8.625 11.25C9.22174 11.25 9.79403 11.0129 10.216 10.591C10.6379 10.169 10.875 9.59674 10.875 9C10.875 8.40326 10.6379 7.83097 10.216 7.40901C9.79403 6.98705 9.22174 6.75 8.625 6.75ZM4.752 15.453C5.04323 14.6601 5.57078 13.9757 6.2634 13.4923C6.95602 13.0088 7.78034 12.7496 8.625 12.7496C9.46966 12.7496 10.294 13.0088 10.9866 13.4923C11.6792 13.9757 12.2068 14.6601 12.498 15.453C12.5603 15.6229 12.5591 15.8096 12.4946 15.9787C12.4301 16.1477 12.3067 16.2878 12.147 16.373C11.063 16.9504 9.85325 17.2517 8.625 17.25C7.39675 17.2517 6.18705 16.9504 5.103 16.373C4.94335 16.2878 4.81988 16.1477 4.75538 15.9787C4.69087 15.8096 4.68967 15.6229 4.752 15.453ZM15 8.25C14.8011 8.25 14.6103 8.32902 14.4697 8.46967C14.329 8.61032 14.25 8.80109 14.25 9C14.25 9.19891 14.329 9.38968 14.4697 9.53033C14.6103 9.67098 14.8011 9.75 15 9.75H18.75C18.9489 9.75 19.1397 9.67098 19.2803 9.53033C19.421 9.38968 19.5 9.19891 19.5 9C19.5 8.80109 19.421 8.61032 19.2803 8.46967C19.1397 8.32902 18.9489 8.25 18.75 8.25H15ZM14.25 12C14.25 11.8011 14.329 11.6103 14.4697 11.4697C14.6103 11.329 14.8011 11.25 15 11.25H18.75C18.9489 11.25 19.1397 11.329 19.2803 11.4697C19.421 11.6103 19.5 11.8011 19.5 12C19.5 12.1989 19.421 12.3897 19.2803 12.5303C19.1397 12.671 18.9489 12.75 18.75 12.75H15C14.8011 12.75 14.6103 12.671 14.4697 12.5303C14.329 12.3897 14.25 12.1989 14.25 12ZM15 14.25C14.8011 14.25 14.6103 14.329 14.4697 14.4697C14.329 14.6103 14.25 14.8011 14.25 15C14.25 15.1989 14.329 15.3897 14.4697 15.5303C14.6103 15.671 14.8011 15.75 15 15.75H18.75C18.9489 15.75 19.1397 15.671 19.2803 15.5303C19.421 15.3897 19.5 15.1989 19.5 15C19.5 14.8011 19.421 14.6103 19.2803 14.4697C19.1397 14.329 18.9489 14.25 18.75 14.25H15Z" fill="#848EA2"/>
</svg>
