<svg width="21" height="20" viewBox="0 0 21 20" fill="none" xmlns="http://www.w3.org/2000/svg">
<g clip-path="url(#clip0_1522_1394)">
<path d="M0 10.7176C0.0929688 10.4785 0.267969 10.3318 0.497656 10.2122C6.98906 6.84807 13.475 3.48394 19.9555 0.114377C20.2234 -0.021493 20.475 -0.0541017 20.7266 0.125246C20.9727 0.304594 21.0328 0.554594 20.9781 0.848072C20.9453 1.01655 20.9289 1.18503 20.907 1.35351C20.6117 3.34264 20.3109 5.32633 20.0156 7.31546C19.7094 9.37525 19.3977 11.435 19.0859 13.4948C18.9219 14.5763 18.7688 15.6579 18.5992 16.7394C18.5117 17.2883 18.1508 17.5002 17.6258 17.3209C15.1375 16.4785 12.6547 15.6307 10.1719 14.7883C9.64141 14.6089 9.11641 14.4296 8.55859 14.2394C11.5008 10.7122 14.432 7.20677 17.3633 3.6959C17.3523 3.68503 17.3469 3.67416 17.3359 3.66329C17.2922 3.6959 17.243 3.72307 17.2047 3.75568C13.4969 6.90786 9.78906 10.06 6.08125 13.2122C5.96094 13.3155 5.8625 13.3263 5.71484 13.2774C3.98672 12.685 2.25859 12.0926 0.525 11.5166C0.273438 11.4296 0.114844 11.2666 0 11.0437C0 10.935 0 10.8263 0 10.7176Z" fill="white"/>
<path d="M11.2165 16.5216C10.675 17.2499 10.1555 17.9564 9.63599 18.6629C9.38442 18.9999 9.13833 19.3423 8.88677 19.6793C8.67349 19.9673 8.40005 20.0651 8.10474 19.9673C7.82583 19.8749 7.66724 19.6358 7.66724 19.2825C7.66724 18.0162 7.66724 16.7445 7.66724 15.4782C7.66724 15.4401 7.67271 15.3966 7.67271 15.3206C8.85396 15.7173 10.0188 16.114 11.2165 16.5216Z" fill="white"/>
</g>
<defs>
<clipPath id="clip0_1522_1394">
<rect width="21" height="20" fill="white"/>
</clipPath>
</defs>
</svg>
