<svg width="22" height="19" viewBox="0 0 22 19" fill="none" xmlns="http://www.w3.org/2000/svg">
<path d="M0 5C0 2.23858 2.23858 0 5 0H17C19.7614 0 22 2.23858 22 5V10.2905C22 12.8915 19.8915 15 17.2905 15V15C16.1371 15 15.0238 15.4233 14.1617 16.1896L11.9965 18.1142C11.4282 18.6194 10.5718 18.6194 10.0035 18.1142L7.83826 16.1896C6.97619 15.4233 5.86288 15 4.70946 15V15C2.1085 15 0 12.8915 0 10.2905V5Z" fill="#F7C000"/>
<path d="M5 5.5H17" stroke="white" stroke-width="2" stroke-linecap="round"/>
<path d="M6 9.5H16" stroke="white" stroke-width="2" stroke-linecap="round"/>
</svg>
