<svg width="20" height="20" viewBox="0 0 20 20" fill="none" xmlns="http://www.w3.org/2000/svg">
<path fill-rule="evenodd" clip-rule="evenodd" d="M9.47 0.470073C9.61062 0.329622 9.80125 0.250732 10 0.250732C10.1987 0.250732 10.3894 0.329622 10.53 0.470073L15.03 4.97007C15.1625 5.11225 15.2346 5.30029 15.2312 5.4946C15.2277 5.6889 15.149 5.87428 15.0116 6.01169C14.8742 6.14911 14.6888 6.22782 14.4945 6.23125C14.3002 6.23468 14.1122 6.16255 13.97 6.03007L10.75 2.81007V14.5001C10.75 14.699 10.671 14.8898 10.5303 15.0304C10.3897 15.1711 10.1989 15.2501 10 15.2501C9.80109 15.2501 9.61032 15.1711 9.46967 15.0304C9.32902 14.8898 9.25 14.699 9.25 14.5001V2.81007L6.03 6.03007C5.88782 6.16255 5.69978 6.23468 5.50548 6.23125C5.31118 6.22782 5.12579 6.14911 4.98838 6.01169C4.85096 5.87428 4.77225 5.6889 4.76882 5.4946C4.7654 5.30029 4.83752 5.11225 4.97 4.97007L9.47 0.470073ZM1 13.7501C1.19891 13.7501 1.38968 13.8291 1.53033 13.9697C1.67098 14.1104 1.75 14.3012 1.75 14.5001V16.7501C1.75 17.1479 1.90803 17.5294 2.18934 17.8107C2.47064 18.092 2.85217 18.2501 3.25 18.2501H16.75C17.1478 18.2501 17.5294 18.092 17.8107 17.8107C18.092 17.5294 18.25 17.1479 18.25 16.7501V14.5001C18.25 14.3012 18.329 14.1104 18.4697 13.9697C18.6103 13.8291 18.8011 13.7501 19 13.7501C19.1989 13.7501 19.3897 13.8291 19.5303 13.9697C19.671 14.1104 19.75 14.3012 19.75 14.5001V16.7501C19.75 17.5457 19.4339 18.3088 18.8713 18.8714C18.3087 19.434 17.5456 19.7501 16.75 19.7501H3.25C2.45435 19.7501 1.69129 19.434 1.12868 18.8714C0.566071 18.3088 0.25 17.5457 0.25 16.7501V14.5001C0.25 14.3012 0.329018 14.1104 0.46967 13.9697C0.610322 13.8291 0.801088 13.7501 1 13.7501Z" fill="#144492"/>
</svg>
